<svg width="128" height="128" viewBox="0 0 128 128" fill="none" xmlns="http://www.w3.org/2000/svg">
  <rect width="128" height="128" rx="20" fill="#3B82F6"/>
  <rect x="20" y="32" width="88" height="64" rx="4" fill="white"/>
  <path d="M32 48H96V52H32V48Z" fill="#64748B"/>
  <path d="M32 58H96V62H32V58Z" fill="#64748B"/>
  <path d="M32 68H80V72H32V68Z" fill="#64748B"/>
  <path d="M32 78H76V82H32V78Z" fill="#64748B"/>
  <circle cx="96" cy="32" r="16" fill="#10B981"/>
  <path d="M88 32L92 36L104 24" stroke="white" stroke-width="4" stroke-linecap="round" stroke-linejoin="round"/>
  <rect x="28" y="40" width="72" height="48" rx="2" fill="#F8FAFC" stroke="#E2E8F0" stroke-width="1"/>
  <path d="M36 52H84V54H36V52Z" fill="#CBD5E1"/>
  <path d="M36 58H84V60H36V58Z" fill="#CBD5E1"/>
  <path d="M36 64H72V66H36V64Z" fill="#CBD5E1"/>
  <path d="M36 70H68V72H36V70Z" fill="#CBD5E1"/>
  <path d="M36 76H76V78H36V76Z" fill="#CBD5E1"/>
</svg>
